# xmcd CD database file
#
# Track frame offsets:
#	150
#	16002
#	31207
#	46207
#	60527
#	76057
#	91752
#	104945
#	115462
#	133745
#
# Disc length: 2003 seconds
#
# Revision: 2
# Processed by: cddbd v1.5PL3 Copyright (c) Steve Scherf et al.
# Submitted via: CDex 1.51
#
DISCID=7807d10a
DTITLE=Marie Osmond - I Only Wanted You
DYEAR=1986
DGENRE=Country
TTITLE0=Cry Just A Little
TTITLE1=I Only Wanted You
TTITLE2=You're Still New To Me (With Paul Davis)
TTITLE3=Making Magic
TTITLE4=I Know The Feeling
TTITLE5=Your Love Carries Me Away
TTITLE6=We're Gonna Need A Love Song
TTITLE7=New Love
TTITLE8=More Than Dancing
TTITLE9=Everybody's Crazy 'Bout My Baby
EXTD=YEAR: 1986
EXTT0=
EXTT1=
EXTT2=
EXTT3=
EXTT4=
EXTT5=
EXTT6=
EXTT7=
EXTT8=
EXTT9=
PLAYORDER=
